<?xml version="1.0" encoding="UTF-8" standalone="no"?>
<!-- Created with Inkscape (http://www.inkscape.org/) -->

<svg
   xmlns:dc="http://purl.org/dc/elements/1.1/"
   xmlns:cc="http://creativecommons.org/ns#"
   xmlns:rdf="http://www.w3.org/1999/02/22-rdf-syntax-ns#"
   xmlns:svg="http://www.w3.org/2000/svg"
   xmlns="http://www.w3.org/2000/svg"
   xmlns:sodipodi="http://sodipodi.sourceforge.net/DTD/sodipodi-0.dtd"
   xmlns:inkscape="http://www.inkscape.org/namespaces/inkscape"
   width="210mm"
   height="297mm"
   viewBox="0 0 210 297"
   version="1.1"
   id="svg8"
   sodipodi:docname="Arduino Gehaeuse LCD final final.svg.2017_05_10_11_07_04.0.svg"
   inkscape:version="0.92.1 r15371">
  <defs
     id="defs2" />
  <sodipodi:namedview
     id="base"
     pagecolor="#ffffff"
     bordercolor="#666666"
     borderopacity="1.0"
     inkscape:pageopacity="0.0"
     inkscape:pageshadow="2"
     inkscape:zoom="2.4407116"
     inkscape:cx="210.48902"
     inkscape:cy="244.41674"
     inkscape:document-units="mm"
     inkscape:current-layer="layer1"
     showgrid="false"
     inkscape:measure-start="387.98,633.162"
     inkscape:measure-end="310.68,646.684"
     showguides="false"
     inkscape:showpageshadow="false"
     inkscape:window-width="1920"
     inkscape:window-height="1027"
     inkscape:window-x="1358"
     inkscape:window-y="-8"
     inkscape:window-maximized="1" />
  <metadata
     id="metadata5">
    <rdf:RDF>
      <cc:Work
         rdf:about="">
        <dc:format>image/svg+xml</dc:format>
        <dc:type
           rdf:resource="http://purl.org/dc/dcmitype/StillImage" />
        <dc:title />
      </cc:Work>
    </rdf:RDF>
  </metadata>
  <g
     inkscape:label="Ebene 1"
     inkscape:groupmode="layer"
     id="layer1">
    <flowRoot
       xml:space="preserve"
       id="flowRoot13"
       style="font-style:normal;font-weight:normal;line-height:0.01%;font-family:sans-serif;letter-spacing:0px;word-spacing:0px;fill:#000000;fill-opacity:1;stroke:none"
       transform="scale(0.26458333)"><flowRegion
         id="flowRegion15"
         style="font-size:26.66666794px"><rect
           id="rect17"
           width="133.5"
           height="127.5"
           x="519.5"
           y="290.01968"
           style="font-size:26.66666794px" /></flowRegion><flowPara
         id="flowPara19"
         style="font-size:26.66666794px;line-height:1.25"> </flowPara></flowRoot>    <text
       xml:space="preserve"
       style="font-style:normal;font-weight:normal;line-height:0%;font-family:sans-serif;letter-spacing:0px;word-spacing:0px;fill:#000000;fill-opacity:1;stroke:none;stroke-width:0.26458332"
       x="142.875"
       y="80.967705"
       id="text23"><tspan
         sodipodi:role="line"
         id="tspan21"
         x="142.875"
         y="80.967705"
         style="font-size:3.52777767px;line-height:1.25;stroke-width:0.26458332"> </tspan></text>
    <text
       xml:space="preserve"
       style="font-style:normal;font-weight:normal;line-height:0%;font-family:sans-serif;letter-spacing:0px;word-spacing:0px;fill:#000000;fill-opacity:1;stroke:none;stroke-width:0.26458332"
       x="144.3302"
       y="82.819794"
       id="text27"><tspan
         sodipodi:role="line"
         x="144.3302"
         y="82.819794"
         style="font-size:3.52777791px;line-height:2;stroke-width:0.26458332"
         id="tspan39"> </tspan></text>
    <text
       xml:space="preserve"
       style="font-style:normal;font-weight:normal;line-height:0%;font-family:sans-serif;letter-spacing:0px;word-spacing:0px;fill:#000000;fill-opacity:1;stroke:none;stroke-width:0.26458332"
       x="146.05"
       y="72.501038"
       id="text120"><tspan
         sodipodi:role="line"
         id="tspan118"
         x="146.05"
         y="72.501038"
         style="font-size:3.52777791px;line-height:1.25;stroke-width:0.26458332"> </tspan></text>
    <g
       aria-label="STIR. HEAT."
       style="font-style:normal;font-weight:normal;font-size:3.17499995px;line-height:1.5;font-family:sans-serif;text-align:end;letter-spacing:0px;word-spacing:0px;text-anchor:end;fill:#000000;fill-opacity:1;stroke:none;stroke-width:0.26458332"
       id="text140" />
    <flowRoot
       xml:space="preserve"
       id="flowRoot42"
       style="font-style:normal;font-weight:normal;line-height:0.01%;font-family:sans-serif;letter-spacing:0px;word-spacing:0px;fill:#000000;fill-opacity:1;stroke:none"
       transform="scale(0.26458333)"><flowRegion
         id="flowRegion44"><rect
           id="rect46"
           width="81.317284"
           height="80.610176"
           x="-203.64676"
           y="1143.0258" /></flowRegion><flowPara
         id="flowPara48"
         style="font-size:12px;line-height:1.25"> </flowPara></flowRoot>    <text
       xml:space="preserve"
       style="font-style:normal;font-weight:normal;line-height:0%;font-family:sans-serif;letter-spacing:0px;word-spacing:0px;fill:#000000;fill-opacity:1;stroke:none;stroke-width:0.26458332"
       x="-49.017231"
       y="308.78656"
       id="text52"><tspan
         sodipodi:role="line"
         id="tspan50"
         x="-49.017231"
         y="308.78656"
         style="font-size:7.05555534px;line-height:1.25;stroke-width:0.26458332"> </tspan></text>
    <path
       style="fill:none;stroke-width:0.26796705;stroke:#000000;stroke-opacity:1"
       d="m 55.00078,259.42607 v 0.89969 2.79985 H 40.00117 25.00106 3.00085 v 9.30071 H 0.00103 v 14.9996 H 3.00085 V 297 a 349.99922,349.99998 0 0 1 74.50036,-8.57001 349.99922,349.99998 0 0 1 74.49985,8.35144 v -9.35551 h 2.99981 v -14.9996 h -2.99981 v -9.30071 h -22.00073 v -2.79985 -0.89969 h -14.9996 -5.2e-4 v 0.89969 h -9.9e-4 v 2.79985 H 99.99961 v -3.69954 H 85.00105 v 0.89969 h -0.001 v 2.79985 H 70.00044 v -3.69954 z"
       id="rect55"
       inkscape:connector-curvature="0" />
    <path
       style="fill:none;stroke-width:0.26458332;stroke:#000000;stroke-opacity:1"
       d="M 151.99951,153.79244 A 340,340 0 0 1 77.499656,162.54592 340,340 0 0 1 2.99982,153.84567 v 9.40047 H 0 v 15.0001 h 2.99982 v 9.9999 h 22.0002 v 2.99982 h 14.99857 v -2.99982 h 15.00012 v 2.99982 h 15.00012 v -2.99982 h 15.000112 v 2.99982 h 15.000117 v -2.99982 h 15.000121 v 2.99982 h 2.86598 12.13362 5.2e-4 v -1.30432 -1.6955 h 22.00021 v -9.9999 h 2.99981 v -15.0001 h -2.99981 z"
       id="rect62"
       inkscape:connector-curvature="0" />
    <path
       style="fill:none;stroke-width:0.1;stroke:#000000;stroke-opacity:1;stroke-miterlimit:4;stroke-dasharray:none"
       d="m 3.0008504,193.00837 0,9.99991 -2.99981687,0 0,15.00012 2.99981687,0 0,15.00011 -2.99981687,0 0,15.00012 2.99981687,0 0,9.99991 22.0002076,0 15.000118,0 14.9996,0 0,-2.56264 0,-1.13739 15.000118,0 0,1.13739 0,2.56264 15.000118,0 0,-2.56264 0,-1.13739 15.000118,0 0,3.70003 14.99908,0 0,-3.70003 15.00012,0 0,1.13739 0,2.56264 22.00073,0 0,-9.99991 2.99981,0 0,-5.00021 0,-9.99991 -2.99981,0 0,-15.00011 2.99981,0 0,-15.00012 -2.99981,0 0,-9.99991 -22.00021,0 0,2.03295 0,0.96738 -15.00012,0 0,-0.96738 0,-2.03295 -15.00012,0 0,3.00033 -15.000114,0 0,-3.00033 -15.000118,0 0,3.00033 -15.000118,0 0,-3.00033 -15.000118,0 0,3.00033 -15.000118,0 0,-3.00033 -21.9991736,0 z"
       id="path4259" />
    <path
       style="fill:none;stroke:#000000;stroke-width:0.07842801;stroke-miterlimit:4;stroke-dasharray:none;stroke-opacity:1"
       d="m 7.9511842,198.59779 c 1.0829278,-6e-5 1.9608259,0.87783 1.9607859,1.96078 4e-5,1.08288 -0.8778581,1.96083 -1.9607859,1.96079 -1.0829276,4e-5 -1.9608253,-0.87791 -1.9607861,-1.96079 -3.92e-5,-1.08295 0.8778585,-1.96084 1.9607861,-1.96078 z"
       id="path4257"
       inkscape:connector-curvature="0" />
    <path
       style="fill:none;stroke:#000000;stroke-width:0.07842802;stroke-miterlimit:4;stroke-dasharray:none;stroke-opacity:1"
       d="m 145.95103,198.59779 c 1.08293,-6e-5 1.96083,0.87783 1.96079,1.96078 4e-5,1.08288 -0.87786,1.96083 -1.96079,1.96079 -1.08294,4e-5 -1.96083,-0.87791 -1.96079,-1.96079 -4e-5,-1.08295 0.87785,-1.96084 1.96079,-1.96078 z"
       id="path4255"
       inkscape:connector-curvature="0" />
    <path
       style="fill:none;stroke:#000000;stroke-width:0.08928281;stroke-miterlimit:4;stroke-dasharray:none;stroke-opacity:1"
       d="m 135.38814,201.51563 c 1.35591,-1.1e-4 2.4552,1.0991 2.45536,2.45513 9e-5,1.35624 -1.09926,2.45571 -2.45536,2.45559 -1.35611,1.2e-4 -2.45548,-1.09935 -2.45536,-2.45559 1.4e-4,-1.35603 1.09943,-2.45524 2.45536,-2.45513 z"
       id="path4253"
       inkscape:connector-curvature="0" />
    <path
       style="fill:#ff0000;stroke-width:0.94457728;stroke:none;stroke-opacity:1;fill-opacity:1"
       d="M 392.8418 713.94922 L 392.8418 732.125 L 395.25781 732.125 L 395.25781 724.90039 L 398.66406 724.90039 L 404.74414 732.125 L 407.88086 732.125 L 401.04492 724.17773 C 402.2005 723.73014 403.10842 723.06834 403.76758 722.18945 C 404.42681 721.30239 404.75586 720.20474 404.75586 718.89453 C 404.75586 717.92611 404.56771 717.12663 404.19336 716.5 C 403.82719 715.86525 403.31541 715.34084 402.65625 714.92578 C 402.07029 714.55958 401.41017 714.30811 400.67773 714.16992 C 399.94537 714.02358 399.03028 713.94922 397.93164 713.94922 L 392.8418 713.94922 z M 395.25781 716.02539 L 395.25977 716.02539 L 398.10156 716.02539 C 398.75261 716.02539 399.32066 716.07408 399.80078 716.17188 C 400.2809 716.26138 400.69484 716.42417 401.04492 716.66016 C 401.4681 716.93685 401.76833 717.27863 401.94727 717.68555 C 402.13435 718.08431 402.23047 718.54362 402.23047 719.06445 C 402.23047 719.74803 402.13987 720.31413 401.96094 720.76172 C 401.79004 721.20116 401.52053 721.59166 401.1543 721.93359 C 400.75553 722.29979 400.27278 722.55126 399.70312 722.68945 C 399.13347 722.81949 398.46418 722.88477 397.69922 722.88477 L 395.25781 722.88477 L 395.25781 716.02539 z "
       transform="scale(0.28222222,0.28222222)"
       id="path4251" />
    <path
       style="fill:#ff0000;stroke-width:0.94457728;stroke:none;stroke-opacity:1;fill-opacity:1"
       d="m 115.69888,201.49261 0.68213,0 0,3.10368 c 0,0.27791 0.018,0.4976 0.0548,0.65836 0.0391,0.16077 0.10369,0.30627 0.19326,0.43719 0.10106,0.14928 0.23754,0.26217 0.4098,0.33796 0.17455,0.0758 0.38339,0.11369 0.62683,0.11369 0.24575,0 0.45511,-0.0371 0.62736,-0.11059 0.17226,-0.0758 0.31005,-0.18947 0.41341,-0.34106 0.0896,-0.13092 0.15239,-0.27985 0.18913,-0.44752 0.0391,-0.16995 0.0589,-0.38011 0.0589,-0.63046 l 0,-3.12125 0.68212,0 0,3.06958 c 0,0.37207 -0.0413,0.69672 -0.12402,0.97462 -0.0804,0.27561 -0.21393,0.50562 -0.39998,0.68936 -0.17685,0.17455 -0.38355,0.30202 -0.62011,0.3824 -0.23657,0.0804 -0.51218,0.12041 -0.82683,0.12041 -0.32154,0 -0.6014,-0.0427 -0.84025,-0.12764 -0.23887,-0.085 -0.44,-0.20981 -0.60307,-0.37517 -0.18603,-0.18833 -0.32038,-0.41572 -0.40307,-0.68213 -0.0804,-0.26642 -0.12041,-0.59371 -0.12041,-0.98185 l 0,-3.06958 z"
       id="path4249" />
    <path
       style="fill:#ff0000;stroke-width:0.94457728;stroke:none;stroke-opacity:1;fill-opacity:1"
       d="m 120.94197,201.49261 1.05782,0 2.21847,4.18889 0,-4.18889 0.63768,0 0,5.1294 -0.84439,0 -2.43189,-4.58887 0,4.58887 -0.63769,0 0,-5.1294 z"
       id="path4247" />
    <path
       style="fill:none;stroke-width:0.1;stroke:#000000;stroke-opacity:1;stroke-miterlimit:4;stroke-dasharray:none"
       d="m 14.388785,203.9462 c 0.692511,0 1.249537,0.55806 1.249537,1.25058 0,0.69248 -0.557026,1.25005 -1.249537,1.25005 -0.692498,0 -1.250569,-0.55757 -1.250569,-1.25005 0,-0.69252 0.558071,-1.25058 1.250569,-1.25058 z"
       id="path4243" />
    <path
       style="fill:none;stroke-width:0.1;stroke:#000000;stroke-opacity:1;stroke-miterlimit:4;stroke-dasharray:none"
       d="m 89.946447,203.9462 c 0.692499,0 1.250053,0.55806 1.250053,1.25058 0,0.69248 -0.557554,1.25005 -1.250053,1.25005 -0.692491,0 -1.250053,-0.55757 -1.250053,-1.25005 0,-0.69252 0.557562,-1.25058 1.250053,-1.25058 z"
       id="path4241" />
    <path
       style="fill:none;stroke:#000000;stroke-width:0.09923508;stroke-miterlimit:4;stroke-dasharray:none;stroke-opacity:1"
       d="m 16.166589,208.97549 70.900766,0 0,24.50056 -70.900766,0 0,-24.50056 z"
       id="path4239"
       inkscape:connector-curvature="0" />
    <path
       style="fill:#ff0000;fill-opacity:1;stroke:none;stroke-width:0.94457728;stroke-opacity:1"
       d="m 143.94122,226.74016 0.8232,0 0,0.98185 -0.8232,0 0,-0.98185 z"
       id="path4237"
       inkscape:connector-curvature="0" />
    <path
       style="fill:#ff0000;fill-opacity:1;stroke:none;stroke-width:0.94457728;stroke-opacity:1"
       d="m 145.9752,226.74016 0.82321,0 0,0.98185 -0.82321,0 0,-0.98185 z"
       id="path4235"
       inkscape:connector-curvature="0" />
    <path
       style="fill:#ff0000;fill-opacity:1;stroke:none;stroke-width:0.94457728;stroke-opacity:1"
       d="m 134.97794,226.76135 0.82321,0 0,0.98185 -0.82321,0 0,-0.98185 z"
       id="path4233"
       inkscape:connector-curvature="0" />
    <path
       style="fill:none;stroke:#000000;stroke-width:0.08928273;stroke-miterlimit:4;stroke-dasharray:none;stroke-opacity:1"
       d="m 135.38814,229.45553 c 1.35591,-1.4e-4 2.4552,1.09905 2.45536,2.45513 1e-4,1.3562 -1.09924,2.45571 -2.45536,2.45559 -1.35611,1.2e-4 -2.45548,-1.09939 -2.45536,-2.45559 1.5e-4,-1.35608 1.09945,-2.45527 2.45536,-2.45513 z"
       id="path4231"
       inkscape:connector-curvature="0" />
    <path
       style="fill:none;stroke:#000000;stroke-width:0.08928684;stroke-miterlimit:4;stroke-dasharray:none;stroke-opacity:1"
       d="m 145.38833,229.45554 c 1.35606,-1.4e-4 2.45545,1.09904 2.45559,2.45513 1.2e-4,1.35619 -1.09934,2.4557 -2.45559,2.45558 -1.35605,-1.5e-4 -2.45524,-1.09954 -2.45513,-2.45558 1.7e-4,-1.35587 1.09927,-2.45502 2.45513,-2.45513 z"
       id="path4229"
       inkscape:connector-curvature="0" />
    <path
       style="fill:#ff0000;stroke-width:0.94457728;stroke:none;stroke-opacity:1;fill-opacity:1"
       d="m 110.56017,229.124 c 0.36059,0 0.69134,0.0344 0.99219,0.10335 0.3009,0.0689 0.56696,0.15374 0.79892,0.25476 l 0,0.80616 -0.0481,0 c -0.19518,-0.16518 -0.45228,-0.30185 -0.77153,-0.4098 -0.31694,-0.11025 -0.64211,-0.16536 -0.97513,-0.16536 -0.36519,0 -0.65934,0.0758 -0.88212,0.22737 -0.22049,0.15158 -0.33073,0.34666 -0.33073,0.5855 0,0.2136 0.0551,0.3816 0.16537,0.50333 0.11025,0.12171 0.30448,0.21473 0.58239,0.27905 0.14699,0.0321 0.35584,0.0708 0.62683,0.11679 0.27103,0.0459 0.50104,0.0934 0.68937,0.14159 0.38125,0.10107 0.66802,0.25346 0.86093,0.45785 0.19293,0.20427 0.28939,0.49035 0.28939,0.85783 0,0.19984 -0.0469,0.39752 -0.14108,0.59273 -0.0919,0.19524 -0.22147,0.36058 -0.38912,0.4961 -0.18373,0.14702 -0.39866,0.262 -0.64441,0.34468 -0.24346,0.0827 -0.53763,0.12402 -0.88212,0.12402 -0.36977,0 -0.70263,-0.0345 -0.9989,-0.10335 -0.29397,-0.0689 -0.59371,-0.17144 -0.89917,-0.30696 l 0,-0.85421 0.0481,0 c 0.25953,0.2159 0.55926,0.38258 0.89917,0.49971 0.33991,0.11713 0.6595,0.1757 0.95808,0.1757 0.42259,0 0.75068,-0.0792 0.98495,-0.23771 0.23656,-0.15846 0.35502,-0.36993 0.35502,-0.63407 0,-0.22735 -0.0564,-0.39486 -0.16898,-0.50281 -0.11023,-0.10787 -0.27906,-0.19198 -0.50643,-0.25167 -0.17226,-0.0459 -0.3591,-0.0838 -0.56121,-0.11369 -0.19982,-0.0299 -0.41262,-0.0678 -0.63769,-0.11369 -0.45475,-0.0965 -0.79237,-0.26051 -1.01285,-0.49247 -0.2182,-0.23429 -0.32711,-0.53874 -0.32711,-0.91312 0,-0.4295 0.18126,-0.78091 0.54415,-1.0542 0.36288,-0.27565 0.82371,-0.41341 1.38182,-0.41341 z"
       id="path4227" />
    <path
       style="fill:#ff0000;stroke-width:0.94457728;stroke:none;stroke-opacity:1;fill-opacity:1"
       d="m 112.96468,229.21701 4.34754,0 0,0.60617 -1.83245,0 0,4.52375 -0.68213,0 0,-4.52375 -1.83296,0 0,-0.60617 z"
       id="path4225" />
    <path
       style="fill:#ff0000;stroke-width:0.94457728;stroke:none;stroke-opacity:1;fill-opacity:1"
       d="m 117.79126,229.21701 2.02571,0 0,0.52349 -0.67179,0 0,4.08243 0.67179,0 0,0.524 -2.02571,0 0,-0.524 0.67179,0 0,-4.08243 -0.67179,0 0,-0.52349 z"
       id="path4223" />
    <path
       style="fill:#ff0000;stroke-width:0.94457728;stroke:none;stroke-opacity:1;fill-opacity:1"
       d="M 428.68555 812.18555 L 428.68555 830.36328 L 431.10352 830.36328 L 431.10352 823.13672 L 434.50977 823.13672 L 440.58789 830.36328 L 443.72461 830.36328 L 436.88867 822.41602 C 438.04432 821.96846 438.95405 821.30477 439.61328 820.42578 C 440.27255 819.53889 440.60156 818.44107 440.60156 817.13086 C 440.60156 816.1623 440.41341 815.36282 440.03906 814.73633 C 439.67286 814.10151 439.15909 813.57714 438.5 813.16211 C 437.91404 812.79601 437.25587 812.54479 436.52344 812.40625 C 435.79097 812.25956 434.87598 812.18555 433.77734 812.18555 L 428.68555 812.18555 z M 431.10352 814.26172 L 433.94727 814.26367 C 434.59824 814.26509 435.16445 814.31076 435.64453 814.4082 C 436.12472 814.49781 436.54055 814.66245 436.89062 814.89844 C 437.31391 815.17499 437.61403 815.51684 437.79297 815.92383 C 437.98041 816.32206 438.07422 817.30273 438.07422 817.30273 C 438.07422 817.30273 437.98362 818.5506 437.80469 818.99805 C 437.63379 819.43763 437.36624 819.82799 437 820.16992 C 436.60124 820.53626 436.11657 820.78955 435.54688 820.92773 C 434.97725 821.05813 434.30989 821.12109 433.54492 821.12109 L 431.10352 821.12109 L 431.10352 814.26172 z "
       transform="scale(0.28222222,0.28222222)"
       id="path4221" />
    <path
       style="fill:none;stroke-width:0.1;stroke:#000000;stroke-opacity:1;stroke-miterlimit:4;stroke-dasharray:none"
       d="m 14.388785,234.9469 c 0.692511,0 1.249537,0.55703 1.249537,1.24953 0,0.69252 -0.557026,1.25006 -1.249537,1.25006 -0.692498,0 -1.250569,-0.55754 -1.250569,-1.25006 0,-0.6925 0.558071,-1.24953 1.250569,-1.24953 z"
       id="path4217" />
    <path
       style="fill:none;stroke-width:0.1;stroke:#000000;stroke-opacity:1;stroke-miterlimit:4;stroke-dasharray:none"
       d="m 89.946447,234.9469 c 0.692499,0 1.250053,0.55703 1.250053,1.24953 0,0.69252 -0.557554,1.25006 -1.250053,1.25006 -0.692491,0 -1.250053,-0.55754 -1.250053,-1.25006 0,-0.6925 0.557562,-1.24953 1.250053,-1.24953 z"
       id="path4215" />
    <path
       style="fill:none;stroke:#000000;stroke-width:0.1;stroke-miterlimit:4;stroke-dasharray:none;stroke-opacity:1"
       d="m 34.69598,239.25461 c 1.661989,0 2.999817,1.33836 2.999817,3.00034 0,1.66201 -1.337828,2.99982 -2.999817,2.99982 -1.662012,0 -2.999819,-1.33781 -2.999819,-2.99982 0,-1.66198 1.337807,-3.00034 2.999819,-3.00034 z"
       id="path4213"
       inkscape:connector-curvature="0" />
    <path
       style="fill:none;stroke-width:0.1;stroke:#000000;stroke-opacity:1;stroke-miterlimit:4;stroke-dasharray:none"
       d="m 8.5012897,240.0086 c 1.38079,-5e-5 2.5001563,1.11933 2.5001053,2.50011 5.1e-5,1.3806 -1.1193153,2.50018 -2.5001053,2.5001 -1.3807898,8e-5 -2.5001556,-1.1195 -2.5001056,-2.5001 -5e-5,-1.38078 1.1193158,-2.50016 2.5001056,-2.50011 z"
       id="path4211" />
    <path
       style="fill:none;stroke:#000000;stroke-width:0.0784281;stroke-miterlimit:4;stroke-dasharray:none;stroke-opacity:1"
       d="m 145.95103,241.09803 c 1.08293,-4e-5 1.96083,0.87787 1.96079,1.96079 4e-5,1.08277 -0.87786,1.96084 -1.96079,1.96078 -1.08294,6e-5 -1.96083,-0.87801 -1.96079,-1.96078 -4e-5,-1.08292 0.87785,-1.96083 1.96079,-1.96079 z"
       id="path4209"
       inkscape:connector-curvature="0" />
    <path
       style="fill:#ff0000;fill-opacity:1;stroke:none;stroke-width:0.94457728;stroke-opacity:1"
       d="m 40.427411,240.40028 h 0.344683 l 1.605071,3.32125 h -0.434083 l -1.343586,-2.8112 -1.343589,2.8112 h -0.43408 z"
       id="path4207"
       inkscape:connector-curvature="0" />
    <path
       style="fill:none;stroke:#000000;stroke-width:0.08928273;stroke-miterlimit:4;stroke-dasharray:none;stroke-opacity:1"
       d="m 135.38814,242.15553 c 1.35591,-1.4e-4 2.4552,1.09906 2.45536,2.45513 1e-4,1.3562 -1.09924,2.45571 -2.45536,2.45559 -1.35611,1.2e-4 -2.45548,-1.09939 -2.45536,-2.45559 1.5e-4,-1.35607 1.09945,-2.45527 2.45536,-2.45513 z"
       id="path4205"
       inkscape:connector-curvature="0" />
    <path
       style="fill:#ff0000;stroke-width:0.94457728;stroke:none;stroke-opacity:1;fill-opacity:1"
       d="m 107.80272,241.91701 0.68213,0 0,2.01177 2.55953,0 0,-2.01177 0.68213,0 0,5.12992 -0.68213,0 0,-2.51147 -2.55953,0 0,2.51147 -0.68213,0 0,-5.12992 z"
       id="path4203" />
    <path
       style="fill:#ff0000;stroke-width:0.94457728;stroke:none;stroke-opacity:1;fill-opacity:1"
       d="m 113.10782,241.91701 3.37964,0 0,0.60617 -2.69751,0 0,1.4056 2.69751,0 0,0.60668 -2.69751,0 0,1.90479 2.69751,0 0,0.60668 -3.37964,0 0,-5.12992 z"
       id="path4201" />
    <path
       style="fill:#ff0000;stroke-width:0.94457728;stroke:none;stroke-opacity:1;fill-opacity:1"
       d="M 421.08984 857.18555 L 414.47266 875.36328 L 416.92578 875.36328 L 418.70898 870.29688 L 426.57031 870.29688 L 428.35156 875.36328 L 430.92773 875.36328 L 424.3125 857.18555 L 421.08984 857.18555 z M 422.63867 859.29688 L 425.82422 868.22266 L 419.44141 868.22266 L 422.63867 859.29688 z "
       transform="scale(0.28222222,0.28222222)"
       id="path4199" />
    <path
       style="fill:#ff0000;stroke-width:0.94457728;stroke:none;stroke-opacity:1;fill-opacity:1"
       d="m 121.29337,241.91701 4.34805,0 0,0.60617 -1.83296,0 0,4.52375 -0.68213,0 0,-4.52375 -1.83296,0 0,-0.60617 z"
       id="path4197" />
    <path
       style="fill:none;stroke:#000000;stroke-width:0.1;stroke-miterlimit:4;stroke-dasharray:none;stroke-opacity:1"
       d="m 17.167334,243.25489 c 1.662,0 2.9993,1.33784 2.9993,2.99981 0,1.662 -1.3373,3.00034 -2.9993,3.00034 -1.662,0 -3.000334,-1.33834 -3.000334,-3.00034 0,-1.66197 1.338334,-2.99981 3.000334,-2.99981 z"
       id="path4193"
       inkscape:connector-curvature="0" />
    <path
       style="fill:none;stroke:#000000;stroke-width:0.1;stroke-miterlimit:4;stroke-dasharray:none;stroke-opacity:1"
       d="m 24.94567,243.25489 c 1.662,0 3.000335,1.33784 3.000335,2.99981 0,1.662 -1.338335,3.00034 -3.000335,3.00034 -1.662,0 -2.9993,-1.33834 -2.9993,-3.00034 0,-1.66197 1.3373,-2.99981 2.9993,-2.99981 z"
       id="path4191"
       inkscape:connector-curvature="0" />
    <path
       style="fill:none;stroke:#000000;stroke-width:0.1;stroke-miterlimit:4;stroke-dasharray:none;stroke-opacity:1"
       d="m 51.946089,243.25489 c 1.66198,0 2.999816,1.33784 2.999816,2.99981 0,1.662 -1.337836,3.00034 -2.999816,3.00034 -1.661999,0 -3.000333,-1.33834 -3.000333,-3.00034 0,-1.66197 1.338334,-2.99981 3.000333,-2.99981 z"
       id="path4189"
       inkscape:connector-curvature="0" />
    <path
       style="fill:#ff0000;fill-opacity:1;stroke:none;stroke-width:0.2665807;stroke-opacity:1"
       d="m 56.447105,244.6731 v 3.07743 h 0.409556 v -1.2237 h 0.576568 l 1.029121,1.2237 h 0.531371 l -1.157552,-1.34551 c 0.195679,-0.0758 0.349194,-0.18797 0.460815,-0.3368 0.111622,-0.1502 0.16757,-0.33652 0.16757,-0.55838 0,-0.16399 -0.03197,-0.29903 -0.09536,-0.40514 -0.06201,-0.10748 -0.148553,-0.19594 -0.260172,-0.26624 -0.09922,-0.0621 -0.211117,-0.10503 -0.335139,-0.12843 -0.12402,-0.0248 -0.278638,-0.0369 -0.464676,-0.0369 z m 0.409556,0.35112 h 0.481208 c 0.110245,0 0.205884,0.008 0.287184,0.0248 0.08131,0.0152 0.151855,0.0427 0.211116,0.0827 0.07166,0.0469 0.122377,0.10473 0.152685,0.17363 0.0317,0.0675 0.04796,0.14552 0.04796,0.23372 0,0.11574 -0.01543,0.21138 -0.04575,0.28718 -0.02894,0.0744 -0.07414,0.14054 -0.136152,0.19844 -0.06752,0.0621 -0.149931,0.10503 -0.246392,0.12843 -0.09646,0.0221 -0.208915,0.0331 -0.338446,0.0331 h -0.41341 z"
       id="path4187"
       inkscape:connector-curvature="0" />
    <path
       style="fill:#ff0000;fill-opacity:1;stroke:none;stroke-width:0.94457728;stroke-opacity:1"
       d="m 66.519875,244.77831 h 0.388607 v 0.66352 H 67.7105 v 0.3266 h -0.802018 v 1.05213 c 0,0.12127 0.0028,0.21635 0.0083,0.28525 0.0055,0.0675 0.02481,0.13092 0.05788,0.19017 0.03032,0.0551 0.07166,0.0958 0.124024,0.12196 0.05374,0.0248 0.135048,0.0372 0.243914,0.0372 0.06339,0 0.129534,-0.009 0.198437,-0.0269 0.0689,-0.0193 0.11851,-0.0351 0.148828,-0.0476 h 0.02067 v 0.34934 c -0.07304,0.0193 -0.15296,0.0351 -0.239778,0.0475 -0.08544,0.0124 -0.161923,0.0186 -0.229442,0.0186 -0.235645,0 -0.414789,-0.0634 -0.537437,-0.19017 -0.122642,-0.12678 -0.183968,-0.33004 -0.183968,-0.60978 v -1.22783 h -0.262516 v -0.3266 h 0.262516 v -0.66352 z"
       id="path4185"
       inkscape:connector-curvature="0" />
    <path
       style="fill:#ff0000;fill-opacity:1;stroke:none;stroke-width:0.2665807;stroke-opacity:1"
       d="m 60.219623,245.37755 c -0.336239,0 -0.607991,0.11107 -0.814696,0.33293 -0.205328,0.22187 -0.308128,0.52146 -0.308128,0.89903 0,0.38173 0.108038,0.67663 0.323012,0.88471 0.214966,0.20671 0.513732,0.31033 0.896826,0.31033 0.150207,0 0.293525,-0.0185 0.429949,-0.0557 0.136423,-0.0372 0.269821,-0.0838 0.400733,-0.13891 v -0.42333 h -0.02039 c -0.06753,0.0606 -0.181353,0.12236 -0.341203,0.18576 -0.158474,0.062 -0.315852,0.0932 -0.472943,0.0932 -0.118513,0 -0.227651,-0.0165 -0.32687,-0.0496 -0.09784,-0.0331 -0.182451,-0.0827 -0.25411,-0.14883 -0.07442,-0.0675 -0.133118,-0.15378 -0.175838,-0.25851 -0.04272,-0.10611 -0.06394,-0.23014 -0.06394,-0.37207 h 1.701049 v -0.21057 c 0,-0.33486 -0.08461,-0.59366 -0.25411,-0.77556 -0.16812,-0.18186 -0.407899,-0.27285 -0.719337,-0.27285 z m -0.02095,0.32081 c 0.206705,0 0.36077,0.0554 0.461368,0.16702 0.101967,0.11162 0.153492,0.26954 0.154892,0.47349 h -1.322916 c 0.01653,-0.18191 0.08626,-0.33432 0.208909,-0.45696 0.124017,-0.12267 0.289662,-0.18355 0.497747,-0.18355 z"
       id="path4181"
       inkscape:connector-curvature="0" />
    <path
       style="fill:#ff0000;fill-opacity:1;stroke:none;stroke-width:0.2665807;stroke-opacity:1"
       d="m 64.94905,245.37755 c -0.33624,0 -0.607992,0.11107 -0.814697,0.33293 -0.205328,0.22187 -0.308124,0.52146 -0.308127,0.89903 0,0.38173 0.108037,0.67663 0.323012,0.88471 0.214968,0.20671 0.513731,0.31033 0.896826,0.31033 0.150207,0 0.293525,-0.0185 0.429948,-0.0557 0.136426,-0.0372 0.269824,-0.0838 0.400733,-0.13891 v -0.42333 h -0.02039 c -0.06753,0.0606 -0.181353,0.12236 -0.341204,0.18576 -0.158473,0.062 -0.315852,0.0932 -0.472942,0.0932 -0.118514,0 -0.227649,-0.0165 -0.32687,-0.0496 -0.09784,-0.0331 -0.182451,-0.0827 -0.25411,-0.14883 -0.07441,-0.0675 -0.133119,-0.15378 -0.175839,-0.25851 -0.04272,-0.10611 -0.06394,-0.23014 -0.06394,-0.37207 h 1.701049 v -0.21057 c 0,-0.33486 -0.08461,-0.59366 -0.25411,-0.77556 -0.16812,-0.18186 -0.407898,-0.27285 -0.719336,-0.27285 z m -0.02095,0.32081 c 0.206705,0 0.36022,0.0554 0.460818,0.16702 0.101967,0.11162 0.154043,0.26954 0.155443,0.47349 h -1.322917 c 0.01654,-0.18191 0.08626,-0.33432 0.208909,-0.45696 0.12402,-0.12267 0.289665,-0.18355 0.497747,-0.18355 z"
       id="path4179"
       inkscape:connector-curvature="0" />
    <path
       style="fill:#ff0000;fill-opacity:1;stroke:none;stroke-width:0.94457728;stroke-opacity:1"
       d="m 62.569728,245.38602 c 0.137806,0 0.276987,0.0172 0.417547,0.0517 0.141939,0.0331 0.25976,0.0737 0.353468,0.12196 v 0.41547 h -0.02067 c -0.09922,-0.073 -0.2198,-0.13435 -0.361733,-0.18396 -0.141939,-0.051 -0.281123,-0.0765 -0.417547,-0.0765 -0.141938,0 -0.261829,0.0276 -0.359667,0.0827 -0.09784,0.0537 -0.146761,0.13436 -0.146761,0.24184 0,0.0951 0.02963,0.16675 0.08888,0.21498 0.05788,0.0482 0.151588,0.0875 0.28112,0.11782 0.07166,0.0165 0.151585,0.0331 0.239781,0.0496 0.08957,0.0165 0.163989,0.0317 0.22324,0.0455 0.180525,0.0414 0.319706,0.11232 0.417547,0.21291 0.09784,0.10198 0.146761,0.23702 0.146761,0.40515 0,0.21083 -0.08751,0.38378 -0.262517,0.51882 -0.173632,0.13505 -0.411345,0.20258 -0.713134,0.20258 -0.170878,0 -0.327975,-0.02 -0.471289,-0.0599 -0.141938,-0.0413 -0.261138,-0.0861 -0.357603,-0.13436 v -0.43614 h 0.02067 c 0.122645,0.0923 0.259075,0.16605 0.409276,0.22117 0.150207,0.0537 0.294212,0.0806 0.432017,0.0806 0.170876,0 0.304546,-0.0276 0.401008,-0.0827 0.09646,-0.0551 0.144695,-0.14194 0.144695,-0.26045 0,-0.0909 -0.02618,-0.15985 -0.07855,-0.2067 -0.05236,-0.0469 -0.152961,-0.0868 -0.301789,-0.11989 -0.05512,-0.0124 -0.127469,-0.0269 -0.217043,-0.0434 -0.08819,-0.0165 -0.16881,-0.0344 -0.241845,-0.0537 -0.202571,-0.0537 -0.346575,-0.1323 -0.432015,-0.23565 -0.08406,-0.10473 -0.126089,-0.23289 -0.126089,-0.38447 0,-0.0951 0.01929,-0.18466 0.05788,-0.26872 0.03996,-0.0841 0.09991,-0.15916 0.179832,-0.22531 0.07717,-0.0648 0.175011,-0.11575 0.293524,-0.15296 0.119888,-0.0386 0.25356,-0.0579 0.401007,-0.0579 z"
       id="path4177"
       inkscape:connector-curvature="0" />
    <path
       style="fill:none;stroke:#000000;stroke-width:0.1;stroke-miterlimit:4;stroke-dasharray:none;stroke-opacity:1"
       d="m 34.69598,247.25516 c 1.661989,0 2.999817,1.3378 2.999817,2.99982 0,1.66197 -1.337828,2.99981 -2.999817,2.99981 -1.662012,0 -2.999819,-1.33784 -2.999819,-2.99981 0,-1.66202 1.337807,-2.99982 2.999819,-2.99982 z"
       id="path4171"
       inkscape:connector-curvature="0" />
    <path
       style="fill:#ff0000;fill-opacity:1;stroke:none;stroke-width:0.94457728;stroke-opacity:1"
       d="m 38.821827,248.86695 h 0.43408 l 1.343589,2.8112 1.343586,-2.8112 h 0.434083 l -1.605071,3.32124 h -0.344683 z"
       id="path4169"
       inkscape:connector-curvature="0" />
    <path
       style="fill:#ff0000;fill-opacity:1;stroke:none;stroke-width:0.94457728;stroke-opacity:1"
       d="m 17.918709,250.33766 v 0.43408 l -2.811198,1.34359 2.811198,1.34359 v 0.43408 l -3.321244,-1.60559 v -0.34468 z"
       id="path4167"
       inkscape:connector-curvature="0" />
    <path
       style="fill:#ff0000;stroke:#ff0000;stroke-width:0.1;stroke-miterlimit:4;stroke-dasharray:none;stroke-opacity:1"
       d="m 23.27883,250.47795 c -0.212217,0 -0.408726,0.0358 -0.58925,0.10748 -0.179144,0.0717 -0.329627,0.1753 -0.450894,0.31033 -0.126779,0.14195 -0.223248,0.31283 -0.289387,0.51264 -0.06615,0.19843 -0.09922,0.42278 -0.09922,0.67358 0,0.25494 0.03307,0.48176 0.09922,0.6802 0.06752,0.19844 0.16371,0.36574 0.287734,0.50216 0.124023,0.13643 0.273954,0.24084 0.450343,0.31254 0.177767,0.0717 0.375103,0.10748 0.591454,0.10748 0.221864,0 0.418648,-0.035 0.590902,-0.10528 0.173633,-0.0703 0.324115,-0.17555 0.450894,-0.31474 0.122647,-0.13367 0.217459,-0.30013 0.284979,-0.49995 0.0689,-0.20119 0.103628,-0.42885 0.103628,-0.68241 0,-0.25355 -0.0339,-0.47983 -0.101423,-0.67965 -0.06615,-0.19981 -0.161781,-0.36875 -0.287184,-0.50657 -0.122645,-0.13366 -0.2723,-0.23642 -0.448689,-0.30812 -0.175011,-0.073 -0.372621,-0.10969 -0.593107,-0.10969 z m 0.0017,0.35387 c 0.310059,0 0.555074,0.10859 0.734219,0.32632 0.179147,0.21636 0.268442,0.52421 0.268442,0.92384 0,0.40377 -0.09095,0.71328 -0.272852,0.92825 -0.180523,0.2136 -0.423884,0.32025 -0.729809,0.32025 -0.305924,0 -0.549561,-0.10665 -0.731462,-0.32025 -0.181901,-0.21497 -0.272852,-0.52448 -0.272852,-0.92825 0,-0.39963 0.08902,-0.70748 0.266788,-0.92384 0.179145,-0.21773 0.424712,-0.32632 0.737526,-0.32632 z"
       id="path4165"
       inkscape:connector-curvature="0" />
    <path
       style="fill:#ff0000;fill-opacity:1;stroke:none;stroke-width:0.94457728;stroke-opacity:1"
       d="m 25.368383,250.5423 h 0.409278 v 1.6061 l 1.494482,-1.6061 h 0.496093 l -1.374592,1.44694 1.438672,1.6309 h -0.531234 l -1.217497,-1.37045 -0.305924,0.32659 v 1.04386 h -0.409278 z"
       id="path4163"
       inkscape:connector-curvature="0" />
    <path
       style="fill:none;stroke-width:1.34346378;stroke:#000000;stroke-opacity:1"
       d="M 337.33008 356.39844 L 329.4668 393.43555 L 340.55859 395.78906 L 328.7832 451.24414 L 317.69336 448.89062 L 305.91797 504.34766 L 317.01172 506.70117 L 305.23438 562.16016 L 294.14258 559.80469 L 286.29297 596.77539 L 335.42773 596.77539 L 335.42773 585.4375 L 392.12109 585.4375 L 392.12109 596.77539 L 429.91211 596.77539 L 480.94922 356.39844 L 443.25781 356.39844 L 443.25781 367.73438 L 386.56641 367.73438 L 386.56641 356.39844 L 337.33008 356.39844 z M 386.80078 480.44141 A 5.6692913 5.6692913 0 0 1 392.46875 486.11133 A 5.6692913 5.6692913 0 0 1 386.80078 491.78125 A 5.6692913 5.6692913 0 0 1 381.13086 486.11133 A 5.6692913 5.6692913 0 0 1 386.80078 480.44141 z "
       transform="scale(0.26458333)"
       id="rect158" />
    <path
       style="fill:none;stroke-width:0.35545811;stroke:#000000;stroke-opacity:1"
       d="m 22.129649,94.297054 13.503568,63.599726 h 9.998873 v -2.99982 h 14.999601 v 2.99982 h 13.000241 l -2.076876,-9.78183 -2.934705,0.62323 -3.115572,-14.67353 2.934705,-0.6227 -3.115572,-14.673 -2.934189,0.6227 -3.115572,-14.67249 2.934705,-0.6227 -2.080493,-9.799406 H 47.101768 v 2.999301 H 32.102167 v -2.999301 z m 25.039815,15.033706 c 0.465852,-0.004 0.883739,0.31854 0.984436,0.79272 l 2.908349,13.69477 c 0.115083,0.54191 -0.228579,1.07089 -0.770496,1.18597 l -10.760066,2.28514 c -0.541915,0.11506 -1.070891,-0.22858 -1.185974,-0.7705 l -2.908349,-13.69477 c -0.115083,-0.54192 0.22858,-1.07089 0.770495,-1.18598 l 10.760067,-2.28513 c 0.06774,-0.0144 0.134988,-0.0217 0.201538,-0.0222 z"
       id="path207"
       inkscape:connector-curvature="0" />
    <flowRoot
       xml:space="preserve"
       id="flowRoot221"
       style="font-style:normal;font-variant:normal;font-weight:normal;font-stretch:normal;line-height:0.01%;font-family:SEGDT;-inkscape-font-specification:SEGDT;letter-spacing:0px;word-spacing:0px;fill:#000000;fill-opacity:1;stroke:none"><flowRegion
         id="flowRegion223"
         style="font-style:normal;font-variant:normal;font-weight:normal;font-stretch:normal;font-family:SEGDT;-inkscape-font-specification:SEGDT"><rect
           id="rect225"
           width="21"
           height="55"
           x="309"
           y="1341.5197"
           style="font-style:normal;font-variant:normal;font-weight:normal;font-stretch:normal;font-family:SEGDT;-inkscape-font-specification:SEGDT" /></flowRegion><flowPara
         id="flowPara227"
         style="font-size:26.66666603px;line-height:1.25"> </flowPara></flowRoot>    <text
       xml:space="preserve"
       style="font-style:normal;font-variant:normal;font-weight:normal;font-stretch:normal;line-height:0%;font-family:SEGDT;-inkscape-font-specification:SEGDT;letter-spacing:0px;word-spacing:0px;fill:#000000;fill-opacity:1;stroke:none;stroke-width:0.26458332"
       x="53.313541"
       y="291.44373"
       id="text231"><tspan
         sodipodi:role="line"
         id="tspan229"
         x="53.313541"
         y="291.44373"
         style="font-style:normal;font-variant:normal;font-weight:normal;font-stretch:normal;font-size:7.05555487px;line-height:1.25;font-family:SEGDT;-inkscape-font-specification:SEGDT;stroke-width:0.26458332"> </tspan></text>
  </g>
</svg>
